# File created by Blade
# Date/Time:  Tue Jan 27 19:38:24 2015
#---------------------------------------------------------
:version 1.10
:name HOM
:units
  mass 1.0
  length 1.000000
  angle deg
:documentation
     Acclaim Skeleton File
:root
   axis xyz
   order TX TY TZ RX RY RZ
   position 0.000000 0.000000 0.000000
   orientation 0 0 0
:bonedata
   begin
      id 1
      name Spine_dum
      direction 0.000000 1.000000 0.000000
      length 6.116652
      axis 0.0 0.0 0.0 xyz
   end
   begin
      id 2
      name LeftUpLeg_dum
      direction 1.000000 0.000000 0.000000
      length 4.711765
      axis 0.0 0.0 0.0 xyz
   end
   begin
      id 3
      name RightUpLeg_dum
      direction -1.000000 0.000000 0.000000
      length 4.711765
      axis 0.0 0.0 0.0 xyz
   end
   begin
      id 4
      name Spine
      direction 0.000000 1.000000 0.000000
      length 0.000000
      axis 0.0 0.0 0.0 xyz
      dof rx ry rz
   end
   begin
      id 5
      name Spine_dum1
      direction 0.000000 1.000000 0.000000
      length 15.225563
      axis 0.0 0.0 0.0 xyz
   end
   begin
      id 6
      name Spine_dum2
      direction 0.000000 1.000000 0.000000
      length 8.977654
      axis 0.0 0.0 0.0 xyz
   end
   begin
      id 7
      name Spine_dum3
      direction 0.000000 1.000000 0.000000
      length 8.977654
      axis 0.0 0.0 0.0 xyz
   end
   begin
      id 8
      name Head
      direction 0.000000 1.000000 0.000000
      length 4.527550
      axis 0.0 0.0 0.0 xyz
      dof rx ry rz
   end
   begin
      id 9
      name LeftShoulder
      direction 1.000000 0.000000 0.000000
      length 7.110130
      axis 0.0 0.0 -90.0 xyz
      dof rx ry rz
   end
   begin
      id 10
      name LeftArm
      direction 1.000000 0.000000 0.000000
      length 10.398341
      axis 0.0 0.0 -90.0 xyz
      dof rx ry rz
   end
   begin
      id 11
      name LeftForeArm
      direction 1.000000 0.000000 0.000000
      length 8.888997
      axis 0.0 0.0 -90.0 xyz
      dof ry rz rx
   end
   begin
      id 12
      name LeftHand
      direction 0.000000 0.000000 0.000000
      length 0.000000
      axis 0.0 0.0 -90.0 xyz
      dof rx ry rz
   end
   begin
      id 13
      name LeftHand_dum1
      direction 0.000000 0.000000 0.000000
      length 0.000000
      axis 0.0 0.0 -90.0 xyz
   end
   begin
      id 14
      name LeftHand_dum2
      direction 1.000000 0.000000 0.000000
      length 3.937000
      axis 0.0 0.0 -90.0 xyz
   end
   begin
      id 15
      name LeftHandThumb1
      direction 0.000000 0.000000 1.000000
      length 3.937000
      axis 0.0 0.0 -90.0 xyz
      dof rx rz ry
   end
   begin
      id 16
      name RightShoulder
      direction -1.000000 0.000000 0.000000
      length 7.110130
      axis 0.0 0.0 90.0 xyz
      dof rx ry rz
   end
   begin
      id 17
      name RightArm
      direction -1.000000 0.000000 0.000000
      length 10.398341
      axis 0.0 0.0 90.0 xyz
      dof rx ry rz
   end
   begin
      id 18
      name RightForeArm
      direction -1.000000 0.000000 0.000000
      length 8.888997
      axis 0.0 0.0 90.0 xyz
      dof ry rz rx
   end
   begin
      id 19
      name RightHand
      direction 0.000000 0.000000 0.000000
      length 0.000000
      axis 0.0 0.0 90.0 xyz
      dof rx ry rz
   end
   begin
      id 20
      name RightHand_dum1
      direction 0.000000 0.000000 0.000000
      length 0.000000
      axis 0.0 0.0 90.0 xyz
   end
   begin
      id 21
      name RightHand_dum2
      direction -1.000000 0.000000 0.000000
      length 3.937000
      axis 0.0 0.0 90.0 xyz
   end
   begin
      id 22
      name RightHandThumb1
      direction 0.000000 0.000000 1.000000
      length 3.937000
      axis 0.0 0.0 90.0 xyz
      dof rx rz ry
   end
   begin
      id 23
      name LeftUpLeg
      direction 0.000000 -1.000000 0.000000
      length 15.510451
      axis 0.0 0.0 0.0 xyz
      dof rx ry rz
   end
   begin
      id 24
      name LeftLeg
      direction 0.000000 -1.000000 0.000000
      length 14.858061
      axis 0.0 0.0 0.0 xyz
      dof rx ry rz
   end
   begin
      id 25
      name LeftFoot
      direction 0.000000 -0.258819 0.965926
      length 5.128852
      axis 15.0 0.0 0.0 xyz
      dof rx ry rz
   end
   begin
      id 26
      name LeftToeBase
      direction 0.000000 0.000000 1.000000
      length 2.952750
      axis 0.0 0.0 0.0 xyz
      dof rx ry rz
   end
   begin
      id 27
      name RightUpLeg
      direction 0.000000 -1.000000 0.000000
      length 15.510451
      axis 0.0 0.0 0.0 xyz
      dof rx ry rz
   end
   begin
      id 28
      name RightLeg
      direction 0.000000 -1.000000 0.000000
      length 14.858061
      axis 0.0 0.0 0.0 xyz
      dof rx ry rz
   end
   begin
      id 29
      name RightFoot
      direction 0.000000 -0.258819 0.965926
      length 5.128852
      axis 15.0 0.0 0.0 xyz
      dof rx ry rz
   end
   begin
      id 30
      name RightToeBase
      direction 0.000000 0.000000 1.000000
      length 2.952750
      axis 0.0 0.0 0.0 xyz
      dof rx ry rz
   end
:hierarchy
   begin
      root Spine_dum LeftUpLeg_dum RightUpLeg_dum
      Spine_dum Spine
      LeftUpLeg_dum LeftUpLeg
      RightUpLeg_dum RightUpLeg
      Spine Spine_dum1 Spine_dum2 Spine_dum3
      Spine_dum1 Head
      Spine_dum2 LeftShoulder
      Spine_dum3 RightShoulder
      LeftShoulder LeftArm
      LeftArm LeftForeArm
      LeftForeArm LeftHand
      LeftHand LeftHand_dum1 LeftHand_dum2
      LeftHand_dum1 LeftHandThumb1
      RightShoulder RightArm
      RightArm RightForeArm
      RightForeArm RightHand
      RightHand RightHand_dum1 RightHand_dum2
      RightHand_dum1 RightHandThumb1
      LeftUpLeg LeftLeg
      LeftLeg LeftFoot
      LeftFoot LeftToeBase
      RightUpLeg RightLeg
      RightLeg RightFoot
      RightFoot RightToeBase
   end

# File created by Blade
# Date/Time:  Tue Jan 27 19:38:14 2015
# Frame Rate: 120.000 fps
#------------------------------------------------------
:FULLY-SPECIFIED
:DEGREES
1010
root 4.367930 32.307414 2.143803 -5.956808 8.901504 1.282980
Spine 3.654199 30.710728 1.284987
Head 13.627780 -19.544012 4.379714
LeftShoulder -6.756547 -3.704540 26.005888
LeftArm -4.749283 34.987735 -100.218649
LeftForeArm 6.746441 -0.000000 12.322864
LeftHand 10.355152 -0.000000 -6.389393
LeftHandThumb1 -26.253704 0.000000 33.147579
RightShoulder 3.244789 8.342770 -30.139358
RightArm 71.976394 -57.217581 58.960892
RightForeArm -8.547530 -0.000000 72.210207
RightHand 20.947464 0.000000 19.009606
RightHandThumb1 -24.326973 -0.000000 -32.862282
LeftUpLeg 7.719012 -7.058271 -4.136864
LeftLeg 6.190195 -0.000000 -0.000000
LeftFoot -15.894038 9.569648 -20.276135
LeftToeBase 16.601255 -0.000000 -0.000000
RightUpLeg 10.699230 -13.620673 1.209486
RightLeg 2.339321 -0.000000 -0.000000
RightFoot -14.510806 -14.937612 13.696517
RightToeBase 9.208961 -0.000000 -0.000000
1011
root 4.371097 32.307881 2.136800 -5.961583 8.932721 1.281531
Spine 3.652841 30.592067 1.341730
Head 13.681125 -19.697459 4.280153
LeftShoulder -6.722364 -3.735627 26.042156
LeftArm -4.709905 34.939816 -100.224872
LeftForeArm 6.724972 -0.000000 12.317571
LeftHand 10.452631 0.000000 -6.481651
LeftHandThumb1 -26.253704 0.000000 33.147579
RightShoulder 3.148783 8.318808 -30.091688
RightArm 70.325726 -56.798827 60.847954
RightForeArm -8.114603 -0.000000 71.797040
RightHand 20.982815 -0.000000 18.769444
RightHandThumb1 -24.326973 -0.000000 -32.862282
LeftUpLeg 7.709585 -7.081167 -4.141164
LeftLeg 6.176827 -0.000000 -0.000000
LeftFoot -15.890148 9.567914 -20.279930
LeftToeBase 16.726103 -0.000000 -0.000000
RightUpLeg 10.697129 -13.621674 1.205329
RightLeg 2.335527 -0.000000 -0.000000
RightFoot -14.510197 -14.968303 13.709840
RightToeBase 9.218371 -0.000000 -0.000000
1012
root 4.374396 32.308739 2.131929 -5.959002 8.966902 1.282741
Spine 3.620447 30.451256 1.382248
Head 13.781563 -19.804322 4.169537
LeftShoulder -6.694588 -3.752668 26.085335
LeftArm -4.676831 34.998820 -100.240067
LeftForeArm 6.602626 -0.000000 12.295719
LeftHand 10.574526 -0.000000 -6.476094
LeftHandThumb1 -26.253704 0.000000 33.147579
RightShoulder 3.106327 8.200741 -30.047630
RightArm 68.698102 -56.278535 62.743656
RightForeArm -7.765720 -0.000000 71.400804
RightHand 20.977090 -0.000000 18.576350
RightHandThumb1 -24.326973 -0.000000 -32.862282
LeftUpLeg 7.695583 -7.059778 -4.149098
LeftLeg 6.188350 -0.000000 -0.000000
LeftFoot -15.782104 9.586109 -20.077161
LeftToeBase 16.343941 -0.000000 -0.000000
RightUpLeg 10.699292 -13.632037 1.199327
RightLeg 2.317299 -0.000000 -0.000000
RightFoot -14.499595 -14.986541 13.712372
RightToeBase 9.262792 -0.000000 -0.000000
1013
root 4.378630 32.309159 2.125898 -5.942296 9.023962 1.281445
Spine 3.562131 30.295028 1.417665
Head 13.922540 -19.881543 4.041697
LeftShoulder -6.663958 -3.757773 26.122503
LeftArm -4.630676 34.966739 -100.244062
LeftForeArm 6.627171 0.000000 12.304362
LeftHand 10.457563 0.000000 -6.421320
LeftHandThumb1 -26.253704 0.000000 33.147579
RightShoulder 3.042820 8.238037 -30.021433
RightArm 66.857543 -55.784406 64.837150
RightForeArm -7.490195 -0.000000 70.956716
RightHand 21.008454 -0.000000 18.366767
RightHandThumb1 -24.326973 -0.000000 -32.862282
LeftUpLeg 7.667015 -7.111869 -4.157967
LeftLeg 6.177050 -0.000000 -0.000000
LeftFoot -15.826391 9.566490 -20.220678
LeftToeBase 16.634909 -0.000000 -0.000000
RightUpLeg 10.685729 -13.674916 1.190958
RightLeg 2.306688 -0.000000 -0.000000
RightFoot -14.499281 -14.984286 13.749840
RightToeBase 9.226798 -0.000000 -0.000000
1014
root 4.379350 32.310199 2.120692 -5.979281 9.033542 1.286484
Spine 3.602183 30.198748 1.475710
Head 14.011779 -19.892920 3.925125
LeftShoulder -6.627592 -3.826885 26.169579
LeftArm -4.590865 34.996333 -100.262064
LeftForeArm 6.707887 -0.000000 12.268987
LeftHand 10.546886 -0.000000 -6.312382
LeftHandThumb1 -26.253704 0.000000 33.147579
RightShoulder 2.968197 8.170354 -29.995300
RightArm 65.112376 -55.162689 66.841822
RightForeArm -7.420660 -0.000000 70.587231
RightHand 20.911037 -0.000000 18.174528
RightHandThumb1 -24.326973 -0.000000 -32.862282
LeftUpLeg 7.697986 -7.087030 -4.161324
LeftLeg 6.170672 -0.000000 -0.000000
LeftFoot -15.824029 9.525043 -20.259229
LeftToeBase 16.742334 -0.000000 -0.000000
RightUpLeg 10.709094 -13.638186 1.187546
RightLeg 2.316107 -0.000000 -0.000000
RightFoot -14.494727 -15.036372 13.722112
RightToeBase 9.261698 -0.000000 -0.000000
1015
root 4.380850 32.310363 2.113855 -5.991349 9.060784 1.291394
Spine 3.601206 30.091074 1.520318
Head 14.136014 -19.983559 3.823227
LeftShoulder -6.593281 -3.880273 26.203823
LeftArm -4.541685 34.976759 -100.246487
LeftForeArm 6.680258 -0.000000 12.274838
LeftHand 10.447051 -0.000000 -6.598760
LeftHandThumb1 -26.253704 0.000000 33.147579
RightShoulder 2.966928 8.116666 -30.006303
RightArm 63.152708 -54.440344 69.102304
RightForeArm -7.613544 -0.000000 70.161137
RightHand 21.043540 -0.000000 18.095437
RightHandThumb1 -24.326973 -0.000000 -32.862282
LeftUpLeg 7.715965 -7.140751 -4.175611
LeftLeg 6.131105 -0.000000 -0.000000
LeftFoot -15.797366 9.551431 -20.271499
LeftToeBase 16.647794 -0.000000 -0.000000
RightUpLeg 10.708139 -13.596399 1.189000
RightLeg 2.320856 -0.000000 -0.000000
RightFoot -14.509052 -15.106522 13.742645
RightToeBase 9.205477 -0.000000 -0.000000
1016
root 4.383389 32.310589 2.108024 -5.988407 9.090826 1.291627
Spine 3.578258 30.001478 1.564946
Head 14.252257 -20.076853 3.707064
LeftShoulder -6.556330 -3.908000 26.237928
LeftArm -4.452599 35.091155 -100.223892
LeftForeArm 6.675531 0.000000 12.250184
LeftHand 10.587358 -0.000000 -6.488779
LeftHandThumb1 -26.253704 0.000000 33.147579
RightShoulder 2.896259 8.079119 -30.085291
RightArm 61.198039 -53.719124 71.368408
RightForeArm -7.757526 -0.000000 69.716071
RightHand 21.163561 -0.000000 17.817601
RightHandThumb1 -24.326973 -0.000000 -32.862282
LeftUpLeg 7.700844 -7.129154 -4.178143
LeftLeg 6.128789 -0.000000 -0.000000
LeftFoot -15.684622 9.556288 -20.074565
LeftToeBase 16.398567 -0.000000 -0.000000
RightUpLeg 10.684336 -13.593712 1.188623
RightLeg 2.350198 -0.000000 -0.000000
RightFoot -14.539534 -15.127483 13.767573
RightToeBase 9.270893 -0.000000 -0.000000
1017
root 4.384918 32.311396 2.104034 -6.009040 9.098816 1.304602
Spine 3.580017 29.940284 1.589661
Head 14.370747 -20.137996 3.644694
LeftShoulder -6.530964 -3.913269 26.289931
LeftArm -4.291608 35.301942 -100.178772
LeftForeArm 6.609120 -0.000000 12.211456
LeftHand 10.482966 -0.000000 -6.352537
LeftHandThumb1 -26.253704 0.000000 33.147579
RightShoulder 2.821368 7.953084 -30.119270
RightArm 59.568022 -52.935777 73.346299
RightForeArm -7.543076 0.000000 69.212231
RightHand 21.154792 0.000000 17.235742
RightHandThumb1 -24.326973 -0.000000 -32.862282
LeftUpLeg 7.727338 -7.104104 -4.188211
LeftLeg 6.098342 -0.000000 -0.000000
LeftFoot -15.732023 9.489378 -20.281032
LeftToeBase 16.693129 -0.000000 -0.000000
RightUpLeg 10.688922 -13.539270 1.181912
RightLeg 2.373291 -0.000000 -0.000000
RightFoot -14.563311 -15.189784 13.772973
RightToeBase 9.313318 -0.000000 -0.000000
1018
root 4.367202 32.313449 2.117862 -6.094131 8.817286 1.354520
Spine 3.627481 30.215944 1.520734
Head 14.467696 -20.253644 3.766501
LeftShoulder -6.458221 -3.990013 26.432331
LeftArm -4.198974 35.400317 -100.102174
LeftForeArm 6.633959 -0.000000 12.222592
LeftHand 10.432852 -0.000000 -6.333233
LeftHandThumb1 -26.253704 0.000000 33.147579
RightShoulder 2.801217 7.986931 -30.014412
RightArm 57.541575 -52.064904 75.612077
RightForeArm -7.303160 -0.000000 68.757537
RightHand 21.052727 -0.000000 16.692389
RightHandThumb1 -24.326973 -0.000000 -32.862282
LeftUpLeg 7.952306 -6.585901 -4.142387
LeftLeg 5.901065 -0.000000 -0.000000
LeftFoot -15.476123 9.330506 -20.034226
LeftToeBase 16.369175 -0.000000 -0.000000
RightUpLeg 10.734702 -13.072393 1.233074
RightLeg 2.417476 -0.000000 -0.000000
RightFoot -14.617802 -15.437945 13.722693
RightToeBase 9.245237 -0.000000 -0.000000
1019
root 4.388641 32.313017 2.087246 -6.072435 9.215355 1.312541
Spine 3.652749 29.710745 1.693453
Head 14.590744 -20.246022 3.497291
LeftShoulder -6.459763 -4.077441 26.348525
LeftArm -4.167184 35.394637 -100.134721
LeftForeArm 6.698270 -0.000000 12.200855
LeftHand 10.403578 -0.000000 -6.367491
LeftHandThumb1 -26.253704 0.000000 33.147579
RightShoulder 2.745204 8.001441 -30.172032
RightArm 55.724973 -51.159696 77.680532
RightForeArm -6.872114 -0.000000 68.219040
RightHand 21.122374 -0.000000 16.136303
RightHandThumb1 -24.326973 -0.000000 -32.862282
LeftUpLeg 7.725328 -7.120585 -4.202977
LeftLeg 6.147264 -0.000000 -0.000000
LeftFoot -15.666177 9.409989 -20.266290
LeftToeBase 16.692937 -0.000000 -0.000000
RightUpLeg 10.711749 -13.585350 1.154524
RightLeg 2.423625 -0.000000 -0.000000
RightFoot -14.575590 -15.255583 13.771458
RightToeBase 9.255285 -0.000000 -0.000000
1020
root 4.393848 32.312794 2.075076 -6.065148 9.313816 1.309400
Spine 3.629370 29.551867 1.731588
Head 14.734229 -20.290084 3.419976
LeftShoulder -6.443563 -4.113111 26.369860
LeftArm -4.064672 35.441170 -100.099592
LeftForeArm 6.742905 -0.000000 12.196976
LeftHand 10.325014 -0.000000 -6.296073
LeftHandThumb1 -26.253704 0.000000 33.147579
RightShoulder 2.734563 8.058975 -30.199253
RightArm 53.738602 -50.138598 79.931456
RightForeArm -6.491494 0.000000 67.660066
RightHand 21.301782 -0.000000 15.805335
RightHandThumb1 -24.326973 -0.000000 -32.862282
LeftUpLeg 7.664469 -7.245176 -4.223534
LeftLeg 6.198754 -0.000000 -0.000000
LeftFoot -15.683544 9.428206 -20.282403
LeftToeBase 16.750993 -0.000000 -0.000000
RightUpLeg 10.671272 -13.681737 1.136929
RightLeg 2.473127 -0.000000 -0.000000
RightFoot -14.588779 -15.239917 13.777837
RightToeBase 9.257633 -0.000000 -0.000000
1021
root 4.396103 32.314117 2.074859 -6.107607 9.281821 1.312170
Spine 3.634246 29.553916 1.763260
Head 14.896433 -20.382423 3.408598
LeftShoulder -6.412810 -4.134897 26.423127
LeftArm -3.942325 35.494053 -100.042116
LeftForeArm 6.679478 -0.000000 12.203067
LeftHand 10.419482 -0.000000 -6.416587
LeftHandThumb1 -26.253704 0.000000 33.147579
RightShoulder 2.706139 8.029110 -30.191438
RightArm 51.819255 -49.023662 82.161202
RightForeArm -6.016534 0.000000 67.077366
RightHand 21.520074 -0.000000 15.428988
RightHandThumb1 -24.326973 -0.000000 -32.862282
LeftUpLeg 7.724752 -7.146186 -4.224358
LeftLeg 6.162787 -0.000000 -0.000000
LeftFoot -15.636937 9.418771 -20.210287
LeftToeBase 16.706585 -0.000000 -0.000000
RightUpLeg 10.691299 -13.616443 1.132143
RightLeg 2.511080 -0.000000 -0.000000
RightFoot -14.607608 -15.268401 13.801522
RightToeBase 9.257988 -0.000000 -0.000000
1022
root 4.399711 32.314656 2.064076 -6.113626 9.379324 1.312186
Spine 3.625401 29.410661 1.785180
Head 15.033689 -20.438988 3.378804
LeftShoulder -6.397764 -4.212230 26.454236
LeftArm -3.875560 35.489908 -100.024489
LeftForeArm 6.748001 -0.000000 12.187685
LeftHand 10.403062 -0.000000 -6.196695
LeftHandThumb1 -26.253704 0.000000 33.147579
RightShoulder 2.668001 7.928335 -30.210570
RightArm 50.157572 -47.856444 84.121011
RightForeArm -5.527357 -0.000000 66.568411
RightHand 21.371627 -0.000000 14.638913
RightHandThumb1 -24.326973 -0.000000 -32.862282
LeftUpLeg 7.670092 -7.190084 -4.231530
LeftLeg 6.227958 -0.000000 -0.000000
LeftFoot -15.619768 9.370207 -20.198330
LeftToeBase 16.707376 -0.000000 -0.000000
RightUpLeg 10.669933 -13.695693 1.115717
RightLeg 2.553683 -0.000000 -0.000000
RightFoot -14.624374 -15.282744 13.807219
RightToeBase 9.315328 -0.000000 -0.000000
